<mxfile host="65bd71144e">
    <diagram id="90BUqckmZHpOb0S1DWGV" name="Page-1">
        <mxGraphModel dx="3620" dy="1190" grid="0" gridSize="10" guides="1" tooltips="1" connect="1" arrows="1" fold="1" page="1" pageScale="1" pageWidth="850" pageHeight="1100" background="#ffffff" math="0" shadow="0">
            <root>
                <mxCell id="0"/>
                <mxCell id="1" parent="0"/>
                <mxCell id="3" value="&lt;font color=&quot;#000000&quot; style=&quot;font-size: 21px; background-color: rgb(255, 255, 255);&quot;&gt;Exam/Quiz App&lt;/font&gt;" style="shape=rect;html=1;verticalAlign=top;fontStyle=1;whiteSpace=wrap;align=center;fillColor=none;strokeColor=#000000;strokeWidth=2;" vertex="1" parent="1">
                    <mxGeometry x="-656" y="71" width="1073" height="1168" as="geometry"/>
                </mxCell>
                <mxCell id="4" value="User" style="shape=umlActor;html=1;verticalLabelPosition=bottom;verticalAlign=top;align=center;strokeColor=#000000;strokeWidth=2;fontSize=15;fontColor=#000000;fillColor=none;" vertex="1" parent="1">
                    <mxGeometry x="-1138" y="414" width="30" height="60" as="geometry"/>
                </mxCell>
                <mxCell id="6" value="Question Creator" style="shape=umlActor;html=1;verticalLabelPosition=bottom;verticalAlign=top;align=center;strokeColor=#000000;strokeWidth=2;fontSize=15;fontColor=#000000;fillColor=none;" vertex="1" parent="1">
                    <mxGeometry x="-736" y="1058" width="30" height="60" as="geometry"/>
                </mxCell>
                <mxCell id="7" value="Exam Creator" style="shape=umlActor;html=1;verticalLabelPosition=bottom;verticalAlign=top;align=center;strokeColor=#000000;strokeWidth=2;fontSize=15;fontColor=#000000;fillColor=none;" vertex="1" parent="1">
                    <mxGeometry x="-741" y="828" width="30" height="60" as="geometry"/>
                </mxCell>
                <mxCell id="11" value="Exam Handler" style="shape=umlActor;html=1;verticalLabelPosition=bottom;verticalAlign=top;align=center;strokeColor=#000000;strokeWidth=2;fontSize=15;fontColor=#000000;fillColor=none;" vertex="1" parent="1">
                    <mxGeometry x="-1603" y="1058" width="30" height="60" as="geometry"/>
                </mxCell>
                <mxCell id="12" value="Exam Supervisor" style="shape=umlActor;html=1;verticalLabelPosition=bottom;verticalAlign=top;align=center;strokeColor=#000000;strokeWidth=2;fontSize=15;fontColor=#000000;fillColor=none;" vertex="1" parent="1">
                    <mxGeometry x="-1605" y="939" width="30" height="60" as="geometry"/>
                </mxCell>
                <mxCell id="13" value="Exam Analyst" style="shape=umlActor;html=1;verticalLabelPosition=bottom;verticalAlign=top;align=center;strokeColor=#000000;strokeWidth=2;fontSize=15;fontColor=#000000;fillColor=none;" vertex="1" parent="1">
                    <mxGeometry x="-1607" y="840" width="30" height="60" as="geometry"/>
                </mxCell>
                <mxCell id="14" value="Log in" style="shape=ellipse;html=1;strokeWidth=3;fontStyle=1;whiteSpace=wrap;align=center;perimeter=ellipsePerimeter;strokeColor=#000000;fontSize=15;fontColor=#000000;fillColor=none;" vertex="1" parent="1">
                    <mxGeometry x="-588" y="141" width="100" height="60" as="geometry"/>
                </mxCell>
                <mxCell id="15" value="logout" style="shape=ellipse;html=1;strokeWidth=3;fontStyle=1;whiteSpace=wrap;align=center;perimeter=ellipsePerimeter;strokeColor=#000000;fontSize=15;fontColor=#000000;fillColor=none;" vertex="1" parent="1">
                    <mxGeometry x="-588" y="215" width="100" height="60" as="geometry"/>
                </mxCell>
                <mxCell id="18" value="" style="html=1;endArrow=none;verticalAlign=bottom;fontSize=15;fontColor=#000000;strokeColor=#000000;entryX=0;entryY=0.5;entryDx=0;entryDy=0;exitX=0.5;exitY=0.5;exitDx=0;exitDy=0;exitPerimeter=0;" edge="1" parent="1" source="4" target="14">
                    <mxGeometry width="160" relative="1" as="geometry">
                        <mxPoint x="-1096" y="87" as="sourcePoint"/>
                        <mxPoint x="199" y="424" as="targetPoint"/>
                    </mxGeometry>
                </mxCell>
                <mxCell id="19" value="" style="html=1;endArrow=none;verticalAlign=bottom;fontSize=15;fontColor=#000000;strokeColor=#000000;entryX=0;entryY=0.5;entryDx=0;entryDy=0;exitX=0.5;exitY=0.5;exitDx=0;exitDy=0;exitPerimeter=0;" edge="1" parent="1" source="4" target="15">
                    <mxGeometry width="160" relative="1" as="geometry">
                        <mxPoint x="-1095" y="86" as="sourcePoint"/>
                        <mxPoint x="-131.48275550457697" y="381.5086765163044" as="targetPoint"/>
                    </mxGeometry>
                </mxCell>
                <mxCell id="24" value="Display error/warning messages" style="shape=ellipse;html=1;strokeWidth=3;fontStyle=1;whiteSpace=wrap;align=center;perimeter=ellipsePerimeter;strokeColor=#000000;fontSize=15;fontColor=#000000;fillColor=none;" vertex="1" parent="1">
                    <mxGeometry x="175" y="561" width="200" height="60" as="geometry"/>
                </mxCell>
                <mxCell id="29" value="Administrator" style="shape=umlActor;html=1;verticalLabelPosition=bottom;verticalAlign=top;align=center;strokeColor=#000000;strokeWidth=2;fontSize=15;fontColor=#000000;fillColor=none;" vertex="1" parent="1">
                    <mxGeometry x="-741" y="533" width="30" height="60" as="geometry"/>
                </mxCell>
                <mxCell id="30" value="Student" style="shape=umlActor;html=1;verticalLabelPosition=bottom;verticalAlign=top;align=center;strokeColor=#000000;strokeWidth=2;fontSize=15;fontColor=#000000;fillColor=none;" vertex="1" parent="1">
                    <mxGeometry x="-1445" y="1030" width="30" height="60" as="geometry"/>
                </mxCell>
                <mxCell id="31" value="" style="edgeStyle=none;html=1;endArrow=block;endFill=0;endSize=12;verticalAlign=bottom;strokeColor=#000000;fontSize=15;fontColor=#000000;exitX=0.5;exitY=0.5;exitDx=0;exitDy=0;exitPerimeter=0;entryX=1;entryY=1;entryDx=0;entryDy=0;entryPerimeter=0;" edge="1" parent="1" source="13" target="4">
                    <mxGeometry width="160" relative="1" as="geometry">
                        <mxPoint x="-753" y="347" as="sourcePoint"/>
                        <mxPoint x="-1191" y="273" as="targetPoint"/>
                    </mxGeometry>
                </mxCell>
                <mxCell id="32" value="" style="edgeStyle=none;html=1;endArrow=block;endFill=0;endSize=12;verticalAlign=bottom;strokeColor=#000000;fontSize=15;fontColor=#000000;exitX=0.5;exitY=0.5;exitDx=0;exitDy=0;exitPerimeter=0;entryX=1;entryY=1;entryDx=0;entryDy=0;entryPerimeter=0;" edge="1" parent="1" source="11" target="4">
                    <mxGeometry width="160" relative="1" as="geometry">
                        <mxPoint x="-895" y="348" as="sourcePoint"/>
                        <mxPoint x="-1200" y="274" as="targetPoint"/>
                    </mxGeometry>
                </mxCell>
                <mxCell id="33" value="" style="edgeStyle=none;html=1;endArrow=block;endFill=0;endSize=12;verticalAlign=bottom;strokeColor=#000000;fontSize=15;fontColor=#000000;exitX=0.5;exitY=0.5;exitDx=0;exitDy=0;exitPerimeter=0;entryX=1;entryY=1;entryDx=0;entryDy=0;entryPerimeter=0;" edge="1" parent="1" source="7" target="4">
                    <mxGeometry width="160" relative="1" as="geometry">
                        <mxPoint x="-1037" y="351" as="sourcePoint"/>
                        <mxPoint x="-1142" y="154" as="targetPoint"/>
                    </mxGeometry>
                </mxCell>
                <mxCell id="34" value="" style="edgeStyle=none;html=1;endArrow=block;endFill=0;endSize=12;verticalAlign=bottom;strokeColor=#000000;fontSize=15;fontColor=#000000;exitX=0.5;exitY=0.5;exitDx=0;exitDy=0;exitPerimeter=0;entryX=1;entryY=1;entryDx=0;entryDy=0;entryPerimeter=0;" edge="1" parent="1" source="12" target="4">
                    <mxGeometry width="160" relative="1" as="geometry">
                        <mxPoint x="-1096" y="221.0000000000001" as="sourcePoint"/>
                        <mxPoint x="-1128" y="152" as="targetPoint"/>
                    </mxGeometry>
                </mxCell>
                <mxCell id="35" value="" style="edgeStyle=none;html=1;endArrow=block;endFill=0;endSize=12;verticalAlign=bottom;strokeColor=#000000;fontSize=15;fontColor=#000000;entryX=1;entryY=1;entryDx=0;entryDy=0;entryPerimeter=0;exitX=0.5;exitY=0;exitDx=0;exitDy=0;exitPerimeter=0;" edge="1" parent="1" source="6" target="4">
                    <mxGeometry width="160" relative="1" as="geometry">
                        <mxPoint x="-1226" y="222" as="sourcePoint"/>
                        <mxPoint x="-1172" y="114" as="targetPoint"/>
                    </mxGeometry>
                </mxCell>
                <mxCell id="36" value="" style="edgeStyle=none;html=1;endArrow=block;endFill=0;endSize=12;verticalAlign=bottom;strokeColor=#000000;fontSize=15;fontColor=#000000;entryX=1;entryY=1;entryDx=0;entryDy=0;entryPerimeter=0;exitX=0.5;exitY=0.5;exitDx=0;exitDy=0;exitPerimeter=0;" edge="1" parent="1" source="29" target="4">
                    <mxGeometry width="160" relative="1" as="geometry">
                        <mxPoint x="-1454" y="357" as="sourcePoint"/>
                        <mxPoint x="-1235" y="278" as="targetPoint"/>
                    </mxGeometry>
                </mxCell>
                <mxCell id="37" value="" style="edgeStyle=none;html=1;endArrow=block;endFill=0;endSize=12;verticalAlign=bottom;strokeColor=#000000;fontSize=15;fontColor=#000000;entryX=1;entryY=1;entryDx=0;entryDy=0;entryPerimeter=0;exitX=0.5;exitY=0;exitDx=0;exitDy=0;exitPerimeter=0;" edge="1" parent="1" source="30" target="4">
                    <mxGeometry width="160" relative="1" as="geometry">
                        <mxPoint x="-1440" y="665" as="sourcePoint"/>
                        <mxPoint x="-1244" y="267" as="targetPoint"/>
                    </mxGeometry>
                </mxCell>
                <mxCell id="38" value="Update user" style="shape=ellipse;html=1;strokeWidth=3;fontStyle=1;whiteSpace=wrap;align=center;perimeter=ellipsePerimeter;strokeColor=#000000;fontSize=15;fontColor=#000000;fillColor=none;" vertex="1" parent="1">
                    <mxGeometry x="-538" y="601" width="100" height="66" as="geometry"/>
                </mxCell>
                <mxCell id="39" value="Insert user" style="shape=ellipse;html=1;strokeWidth=3;fontStyle=1;whiteSpace=wrap;align=center;perimeter=ellipsePerimeter;strokeColor=#000000;fontSize=15;fontColor=#000000;fillColor=none;" vertex="1" parent="1">
                    <mxGeometry x="-638" y="421" width="100" height="60" as="geometry"/>
                </mxCell>
                <mxCell id="40" value="Delete user" style="shape=ellipse;html=1;strokeWidth=3;fontStyle=1;whiteSpace=wrap;align=center;perimeter=ellipsePerimeter;strokeColor=#000000;fontSize=15;fontColor=#000000;fillColor=none;" vertex="1" parent="1">
                    <mxGeometry x="-648" y="648" width="100" height="60" as="geometry"/>
                </mxCell>
                <mxCell id="41" value="" style="edgeStyle=none;html=1;endArrow=none;verticalAlign=bottom;strokeColor=#000000;fontSize=15;fontColor=#000000;exitX=0.5;exitY=0.5;exitDx=0;exitDy=0;exitPerimeter=0;entryX=0;entryY=1;entryDx=0;entryDy=0;" edge="1" parent="1" source="29" target="39">
                    <mxGeometry width="160" relative="1" as="geometry">
                        <mxPoint x="-617" y="331" as="sourcePoint"/>
                        <mxPoint x="-457" y="331" as="targetPoint"/>
                    </mxGeometry>
                </mxCell>
                <mxCell id="42" value="" style="edgeStyle=none;html=1;endArrow=none;verticalAlign=bottom;strokeColor=#000000;fontSize=15;fontColor=#000000;exitX=0.5;exitY=0.5;exitDx=0;exitDy=0;exitPerimeter=0;entryX=0;entryY=0.5;entryDx=0;entryDy=0;" edge="1" parent="1" source="29" target="38">
                    <mxGeometry width="160" relative="1" as="geometry">
                        <mxPoint x="-733" y="669" as="sourcePoint"/>
                        <mxPoint x="-593" y="619" as="targetPoint"/>
                    </mxGeometry>
                </mxCell>
                <mxCell id="43" value="" style="edgeStyle=none;html=1;endArrow=none;verticalAlign=bottom;strokeColor=#000000;fontSize=15;fontColor=#000000;exitX=0.5;exitY=0.5;exitDx=0;exitDy=0;exitPerimeter=0;entryX=0;entryY=0;entryDx=0;entryDy=0;" edge="1" parent="1" source="29" target="40">
                    <mxGeometry width="160" relative="1" as="geometry">
                        <mxPoint x="-722" y="654" as="sourcePoint"/>
                        <mxPoint x="-581" y="680" as="targetPoint"/>
                    </mxGeometry>
                </mxCell>
                <mxCell id="44" value="Assign user role" style="shape=ellipse;html=1;strokeWidth=3;fontStyle=1;whiteSpace=wrap;align=center;perimeter=ellipsePerimeter;strokeColor=#000000;fontSize=15;fontColor=#000000;fillColor=none;" vertex="1" parent="1">
                    <mxGeometry x="-533" y="451" width="110" height="70" as="geometry"/>
                </mxCell>
                <mxCell id="45" value="Revoke user role" style="shape=ellipse;html=1;strokeWidth=3;fontStyle=1;whiteSpace=wrap;align=center;perimeter=ellipsePerimeter;strokeColor=#000000;fontSize=15;fontColor=#000000;fillColor=none;" vertex="1" parent="1">
                    <mxGeometry x="-524" y="527" width="100" height="66" as="geometry"/>
                </mxCell>
                <mxCell id="46" value="" style="edgeStyle=none;html=1;endArrow=none;verticalAlign=bottom;strokeColor=#000000;fontSize=15;fontColor=#000000;exitX=0.5;exitY=0.5;exitDx=0;exitDy=0;exitPerimeter=0;entryX=0;entryY=0.5;entryDx=0;entryDy=0;" edge="1" parent="1" source="29" target="44">
                    <mxGeometry width="160" relative="1" as="geometry">
                        <mxPoint x="-996" y="727" as="sourcePoint"/>
                        <mxPoint x="-857" y="631" as="targetPoint"/>
                    </mxGeometry>
                </mxCell>
                <mxCell id="47" value="" style="edgeStyle=none;html=1;endArrow=none;verticalAlign=bottom;strokeColor=#000000;fontSize=15;fontColor=#000000;exitX=0.5;exitY=0.5;exitDx=0;exitDy=0;exitPerimeter=0;entryX=0;entryY=0.5;entryDx=0;entryDy=0;" edge="1" parent="1" source="29" target="45">
                    <mxGeometry width="160" relative="1" as="geometry">
                        <mxPoint x="-602.5" y="776" as="sourcePoint"/>
                        <mxPoint x="-463.5" y="680" as="targetPoint"/>
                    </mxGeometry>
                </mxCell>
                <mxCell id="48" value="See user stats in table format and/or save to CSV" style="shape=ellipse;html=1;strokeWidth=3;fontStyle=1;whiteSpace=wrap;align=center;perimeter=ellipsePerimeter;strokeColor=#000000;fontSize=15;fontColor=#000000;fillColor=none;" vertex="1" parent="1">
                    <mxGeometry x="-524" y="389" width="280" height="60" as="geometry"/>
                </mxCell>
                <mxCell id="49" value="" style="edgeStyle=none;html=1;endArrow=none;verticalAlign=bottom;strokeColor=#000000;fontSize=15;fontColor=#000000;exitX=0.5;exitY=0.5;exitDx=0;exitDy=0;exitPerimeter=0;entryX=0;entryY=1;entryDx=0;entryDy=0;" edge="1" parent="1" source="29" target="48">
                    <mxGeometry width="160" relative="1" as="geometry">
                        <mxPoint x="-716" y="573" as="sourcePoint"/>
                        <mxPoint x="-530" y="500" as="targetPoint"/>
                    </mxGeometry>
                </mxCell>
                <mxCell id="51" value="See question stats in table format and/or save to CSV" style="shape=ellipse;html=1;strokeWidth=3;fontStyle=1;whiteSpace=wrap;align=center;perimeter=ellipsePerimeter;strokeColor=#000000;fontSize=15;fontColor=#000000;fillColor=none;" vertex="1" parent="1">
                    <mxGeometry x="-406" y="485" width="280" height="60" as="geometry"/>
                </mxCell>
                <mxCell id="52" value="" style="edgeStyle=none;html=1;endArrow=none;verticalAlign=bottom;strokeColor=#000000;fontSize=15;fontColor=#000000;exitX=0.5;exitY=0.5;exitDx=0;exitDy=0;exitPerimeter=0;entryX=0;entryY=0.5;entryDx=0;entryDy=0;" edge="1" parent="1" source="29" target="51">
                    <mxGeometry width="160" relative="1" as="geometry">
                        <mxPoint x="-1035" y="571" as="sourcePoint"/>
                        <mxPoint x="-833" y="565" as="targetPoint"/>
                    </mxGeometry>
                </mxCell>
                <mxCell id="144" value="" style="edgeStyle=none;html=1;strokeColor=#000000;fontSize=15;fontColor=#006600;endSize=9;" edge="1" parent="1" source="53" target="137">
                    <mxGeometry relative="1" as="geometry"/>
                </mxCell>
                <mxCell id="53" value="See exam stats in table format and/or save to CSV" style="shape=ellipse;html=1;strokeWidth=3;fontStyle=1;whiteSpace=wrap;align=center;perimeter=ellipsePerimeter;strokeColor=#000000;fontSize=15;fontColor=#000000;fillColor=none;" vertex="1" parent="1">
                    <mxGeometry x="-427" y="571" width="280" height="60" as="geometry"/>
                </mxCell>
                <mxCell id="54" value="" style="edgeStyle=none;html=1;endArrow=none;verticalAlign=bottom;strokeColor=#000000;fontSize=15;fontColor=#000000;exitX=0.5;exitY=0.5;exitDx=0;exitDy=0;exitPerimeter=0;entryX=0;entryY=0.5;entryDx=0;entryDy=0;" edge="1" parent="1" source="29" target="53">
                    <mxGeometry width="160" relative="1" as="geometry">
                        <mxPoint x="-1021" y="551" as="sourcePoint"/>
                        <mxPoint x="-828" y="611" as="targetPoint"/>
                    </mxGeometry>
                </mxCell>
                <mxCell id="55" value="See feedback stats in table format and/or save to CSV" style="shape=ellipse;html=1;strokeWidth=3;fontStyle=1;whiteSpace=wrap;align=center;perimeter=ellipsePerimeter;strokeColor=#000000;fontSize=15;fontColor=#000000;fillColor=none;" vertex="1" parent="1">
                    <mxGeometry x="-538.5" y="667" width="280" height="60" as="geometry"/>
                </mxCell>
                <mxCell id="56" value="" style="edgeStyle=none;html=1;endArrow=none;verticalAlign=bottom;strokeColor=#000000;fontSize=15;fontColor=#000000;exitX=0.5;exitY=0.5;exitDx=0;exitDy=0;exitPerimeter=0;entryX=0;entryY=0;entryDx=0;entryDy=0;" edge="1" parent="1" source="29" target="55">
                    <mxGeometry width="160" relative="1" as="geometry">
                        <mxPoint x="-668" y="693" as="sourcePoint"/>
                        <mxPoint x="-475" y="753" as="targetPoint"/>
                    </mxGeometry>
                </mxCell>
                <mxCell id="57" value="Get help" style="shape=ellipse;html=1;strokeWidth=3;fontStyle=1;whiteSpace=wrap;align=center;perimeter=ellipsePerimeter;strokeColor=#000000;fontSize=15;fontColor=#000000;fillColor=none;" vertex="1" parent="1">
                    <mxGeometry x="-588" y="287" width="100" height="60" as="geometry"/>
                </mxCell>
                <mxCell id="58" value="" style="html=1;endArrow=none;verticalAlign=bottom;fontSize=15;fontColor=#000000;strokeColor=#000000;entryX=0;entryY=0.5;entryDx=0;entryDy=0;exitX=0.5;exitY=0.5;exitDx=0;exitDy=0;exitPerimeter=0;" edge="1" parent="1" source="4" target="57">
                    <mxGeometry width="160" relative="1" as="geometry">
                        <mxPoint x="-588" y="504" as="sourcePoint"/>
                        <mxPoint x="-53" y="305" as="targetPoint"/>
                    </mxGeometry>
                </mxCell>
                <mxCell id="59" value="Refresh stats" style="shape=ellipse;html=1;strokeWidth=3;fontStyle=1;whiteSpace=wrap;align=center;perimeter=ellipsePerimeter;strokeColor=#000000;fontSize=15;fontColor=#000000;fillColor=none;" vertex="1" parent="1">
                    <mxGeometry x="-640" y="354" width="100" height="60" as="geometry"/>
                </mxCell>
                <mxCell id="60" value="" style="edgeStyle=none;html=1;endArrow=none;verticalAlign=bottom;strokeColor=#000000;fontSize=15;fontColor=#000000;exitX=0.5;exitY=0.5;exitDx=0;exitDy=0;exitPerimeter=0;entryX=0;entryY=1;entryDx=0;entryDy=0;" edge="1" parent="1" source="29" target="59">
                    <mxGeometry width="160" relative="1" as="geometry">
                        <mxPoint x="-792" y="503.92" as="sourcePoint"/>
                        <mxPoint x="-691.5742512399702" y="417.0010377718342" as="targetPoint"/>
                    </mxGeometry>
                </mxCell>
                <mxCell id="61" value="Update exam" style="shape=ellipse;html=1;strokeWidth=3;fontStyle=1;whiteSpace=wrap;align=center;perimeter=ellipsePerimeter;strokeColor=#000000;fontSize=15;fontColor=#000000;fillColor=none;" vertex="1" parent="1">
                    <mxGeometry x="-580" y="840" width="100" height="60" as="geometry"/>
                </mxCell>
                <mxCell id="62" value="Insert exam" style="shape=ellipse;html=1;strokeWidth=3;fontStyle=1;whiteSpace=wrap;align=center;perimeter=ellipsePerimeter;strokeColor=#000000;fontSize=15;fontColor=#000000;fillColor=none;" vertex="1" parent="1">
                    <mxGeometry x="-632" y="719" width="100" height="60" as="geometry"/>
                </mxCell>
                <mxCell id="63" value="Delete exam" style="shape=ellipse;html=1;strokeWidth=3;fontStyle=1;whiteSpace=wrap;align=center;perimeter=ellipsePerimeter;strokeColor=#000000;fontSize=15;fontColor=#000000;fillColor=none;" vertex="1" parent="1">
                    <mxGeometry x="-624" y="931" width="100" height="60" as="geometry"/>
                </mxCell>
                <mxCell id="64" value="" style="edgeStyle=none;html=1;endArrow=none;verticalAlign=bottom;strokeColor=#000000;fontSize=15;fontColor=#000000;exitX=0.5;exitY=0.5;exitDx=0;exitDy=0;exitPerimeter=0;entryX=0;entryY=1;entryDx=0;entryDy=0;" edge="1" parent="1" source="7" target="62">
                    <mxGeometry width="160" relative="1" as="geometry">
                        <mxPoint x="-413" y="823" as="sourcePoint"/>
                        <mxPoint x="-220" y="883" as="targetPoint"/>
                    </mxGeometry>
                </mxCell>
                <mxCell id="65" value="" style="edgeStyle=none;html=1;endArrow=none;verticalAlign=bottom;strokeColor=#000000;fontSize=15;fontColor=#000000;exitX=0.5;exitY=0.5;exitDx=0;exitDy=0;exitPerimeter=0;entryX=0;entryY=0.5;entryDx=0;entryDy=0;" edge="1" parent="1" source="7" target="61">
                    <mxGeometry width="160" relative="1" as="geometry">
                        <mxPoint x="-741" y="950" as="sourcePoint"/>
                        <mxPoint x="-647" y="900" as="targetPoint"/>
                    </mxGeometry>
                </mxCell>
                <mxCell id="66" value="" style="edgeStyle=none;html=1;endArrow=none;verticalAlign=bottom;strokeColor=#000000;fontSize=15;fontColor=#000000;exitX=0.5;exitY=0.5;exitDx=0;exitDy=0;exitPerimeter=0;entryX=0;entryY=0;entryDx=0;entryDy=0;" edge="1" parent="1" source="7" target="63">
                    <mxGeometry width="160" relative="1" as="geometry">
                        <mxPoint x="-750" y="944" as="sourcePoint"/>
                        <mxPoint x="-597" y="955" as="targetPoint"/>
                    </mxGeometry>
                </mxCell>
                <mxCell id="67" value="Add exam question" style="shape=ellipse;html=1;strokeWidth=3;fontStyle=1;whiteSpace=wrap;align=center;perimeter=ellipsePerimeter;strokeColor=#000000;fontSize=15;fontColor=#000000;fillColor=none;" vertex="1" parent="1">
                    <mxGeometry x="-530" y="740" width="155" height="60" as="geometry"/>
                </mxCell>
                <mxCell id="68" value="Delete exam question" style="shape=ellipse;html=1;strokeWidth=3;fontStyle=1;whiteSpace=wrap;align=center;perimeter=ellipsePerimeter;strokeColor=#000000;fontSize=15;fontColor=#000000;fillColor=none;" vertex="1" parent="1">
                    <mxGeometry x="-499" y="879" width="155" height="60" as="geometry"/>
                </mxCell>
                <mxCell id="69" value="Add exam student" style="shape=ellipse;html=1;strokeWidth=3;fontStyle=1;whiteSpace=wrap;align=center;perimeter=ellipsePerimeter;strokeColor=#000000;fontSize=15;fontColor=#000000;fillColor=none;" vertex="1" parent="1">
                    <mxGeometry x="-485" y="800" width="155" height="60" as="geometry"/>
                </mxCell>
                <mxCell id="70" value="Delete exam student" style="shape=ellipse;html=1;strokeWidth=3;fontStyle=1;whiteSpace=wrap;align=center;perimeter=ellipsePerimeter;strokeColor=#000000;fontSize=15;fontColor=#000000;fillColor=none;" vertex="1" parent="1">
                    <mxGeometry x="-503" y="948" width="155" height="60" as="geometry"/>
                </mxCell>
                <mxCell id="71" value="" style="edgeStyle=none;html=1;endArrow=none;verticalAlign=bottom;strokeColor=#000000;fontSize=15;fontColor=#000000;exitX=0.5;exitY=0.5;exitDx=0;exitDy=0;exitPerimeter=0;entryX=0;entryY=1;entryDx=0;entryDy=0;" edge="1" parent="1" source="7" target="67">
                    <mxGeometry width="160" relative="1" as="geometry">
                        <mxPoint x="-652" y="912.5" as="sourcePoint"/>
                        <mxPoint x="-558" y="803.5" as="targetPoint"/>
                    </mxGeometry>
                </mxCell>
                <mxCell id="72" value="" style="edgeStyle=none;html=1;endArrow=none;verticalAlign=bottom;strokeColor=#000000;fontSize=15;fontColor=#000000;exitX=0.5;exitY=0.5;exitDx=0;exitDy=0;exitPerimeter=0;entryX=0;entryY=0.5;entryDx=0;entryDy=0;" edge="1" parent="1" source="7" target="69">
                    <mxGeometry width="160" relative="1" as="geometry">
                        <mxPoint x="-335" y="803.96" as="sourcePoint"/>
                        <mxPoint x="-105.73741417731526" y="727.0028244485009" as="targetPoint"/>
                    </mxGeometry>
                </mxCell>
                <mxCell id="73" value="" style="edgeStyle=none;html=1;endArrow=none;verticalAlign=bottom;strokeColor=#000000;fontSize=15;fontColor=#000000;exitX=0.5;exitY=0.5;exitDx=0;exitDy=0;exitPerimeter=0;entryX=0;entryY=0.5;entryDx=0;entryDy=0;" edge="1" parent="1" source="7" target="68">
                    <mxGeometry width="160" relative="1" as="geometry">
                        <mxPoint x="-666" y="1067" as="sourcePoint"/>
                        <mxPoint x="-425.0000000000091" y="1039" as="targetPoint"/>
                    </mxGeometry>
                </mxCell>
                <mxCell id="74" value="" style="edgeStyle=none;html=1;endArrow=none;verticalAlign=bottom;strokeColor=#000000;fontSize=15;fontColor=#000000;exitX=0.5;exitY=0.5;exitDx=0;exitDy=0;exitPerimeter=0;entryX=0;entryY=0;entryDx=0;entryDy=0;" edge="1" parent="1" source="7" target="70">
                    <mxGeometry width="160" relative="1" as="geometry">
                        <mxPoint x="-723" y="883.5" as="sourcePoint"/>
                        <mxPoint x="-496" y="934.5" as="targetPoint"/>
                    </mxGeometry>
                </mxCell>
                <mxCell id="75" value="Insert question and it's options" style="shape=ellipse;html=1;strokeWidth=3;fontStyle=1;whiteSpace=wrap;align=center;perimeter=ellipsePerimeter;strokeColor=#000000;fontSize=15;fontColor=#000000;fillColor=none;" vertex="1" parent="1">
                    <mxGeometry x="-617.5" y="1011" width="177" height="60" as="geometry"/>
                </mxCell>
                <mxCell id="76" value="Update question and it's options" style="shape=ellipse;html=1;strokeWidth=3;fontStyle=1;whiteSpace=wrap;align=center;perimeter=ellipsePerimeter;strokeColor=#000000;fontSize=15;fontColor=#000000;fillColor=none;" vertex="1" parent="1">
                    <mxGeometry x="-616" y="1090" width="175.5" height="60" as="geometry"/>
                </mxCell>
                <mxCell id="77" value="Delete question and it's options" style="shape=ellipse;html=1;strokeWidth=3;fontStyle=1;whiteSpace=wrap;align=center;perimeter=ellipsePerimeter;strokeColor=#000000;fontSize=15;fontColor=#000000;fillColor=none;" vertex="1" parent="1">
                    <mxGeometry x="-617.75" y="1169" width="175.5" height="60" as="geometry"/>
                </mxCell>
                <mxCell id="78" value="" style="edgeStyle=none;html=1;endArrow=none;verticalAlign=bottom;strokeColor=#000000;fontSize=15;fontColor=#000000;exitX=0.5;exitY=0.5;exitDx=0;exitDy=0;exitPerimeter=0;entryX=0;entryY=0.5;entryDx=0;entryDy=0;" edge="1" parent="1" source="6" target="75">
                    <mxGeometry width="160" relative="1" as="geometry">
                        <mxPoint x="-764.43" y="1263.92" as="sourcePoint"/>
                        <mxPoint x="-656.0042512399606" y="1176.0010377718286" as="targetPoint"/>
                    </mxGeometry>
                </mxCell>
                <mxCell id="79" value="" style="edgeStyle=none;html=1;endArrow=none;verticalAlign=bottom;strokeColor=#000000;fontSize=15;fontColor=#000000;exitX=0.5;exitY=0.5;exitDx=0;exitDy=0;exitPerimeter=0;entryX=0;entryY=0.5;entryDx=0;entryDy=0;" edge="1" parent="1" source="6" target="76">
                    <mxGeometry width="160" relative="1" as="geometry">
                        <mxPoint x="-771" y="1218" as="sourcePoint"/>
                        <mxPoint x="-670.9999999999932" y="1200" as="targetPoint"/>
                    </mxGeometry>
                </mxCell>
                <mxCell id="80" value="" style="edgeStyle=none;html=1;endArrow=none;verticalAlign=bottom;strokeColor=#000000;fontSize=15;fontColor=#000000;exitX=0.5;exitY=0.5;exitDx=0;exitDy=0;exitPerimeter=0;entryX=0;entryY=0.5;entryDx=0;entryDy=0;" edge="1" parent="1" source="6" target="77">
                    <mxGeometry width="160" relative="1" as="geometry">
                        <mxPoint x="-896" y="1181" as="sourcePoint"/>
                        <mxPoint x="-714.9999999999986" y="1229" as="targetPoint"/>
                    </mxGeometry>
                </mxCell>
                <mxCell id="81" value="Verify entry fields" style="shape=ellipse;html=1;strokeWidth=3;fontStyle=1;whiteSpace=wrap;align=center;perimeter=ellipsePerimeter;strokeColor=#000000;fontSize=15;fontColor=#000000;fillColor=none;" vertex="1" parent="1">
                    <mxGeometry x="175" y="339" width="200" height="60" as="geometry"/>
                </mxCell>
                <mxCell id="109" value="Display info messages" style="shape=ellipse;html=1;strokeWidth=3;fontStyle=1;whiteSpace=wrap;align=center;perimeter=ellipsePerimeter;strokeColor=#000000;fontSize=15;fontColor=#000000;fillColor=none;" vertex="1" parent="1">
                    <mxGeometry x="175" y="768" width="200" height="60" as="geometry"/>
                </mxCell>
                <mxCell id="111" value="" style="ellipse;whiteSpace=wrap;html=1;aspect=fixed;strokeColor=#B20000;strokeWidth=2;fontSize=15;fontColor=#ffffff;fillColor=#e51400;" vertex="1" parent="1">
                    <mxGeometry x="159" y="336" width="15" height="15" as="geometry"/>
                </mxCell>
                <mxCell id="112" value="" style="ellipse;whiteSpace=wrap;html=1;aspect=fixed;strokeColor=#B20000;strokeWidth=2;fontSize=15;fontColor=#ffffff;fillColor=#e51400;" vertex="1" parent="1">
                    <mxGeometry x="-568" y="183" width="15" height="15" as="geometry"/>
                </mxCell>
                <mxCell id="114" value="&amp;lt;&amp;lt;include&amp;gt;&amp;gt;" style="edgeStyle=none;html=1;endArrow=open;verticalAlign=bottom;dashed=1;labelBackgroundColor=none;strokeColor=#000000;fontSize=15;fontColor=#FF0000;endSize=9;entryX=0;entryY=0.5;entryDx=0;entryDy=0;" edge="1" parent="1" target="81">
                    <mxGeometry width="160" relative="1" as="geometry">
                        <mxPoint x="79" y="365" as="sourcePoint"/>
                        <mxPoint x="130" y="383.09" as="targetPoint"/>
                    </mxGeometry>
                </mxCell>
                <mxCell id="115" value="" style="ellipse;whiteSpace=wrap;html=1;aspect=fixed;strokeColor=#001DBC;strokeWidth=2;fontSize=15;fontColor=#ffffff;fillColor=#0050ef;" vertex="1" parent="1">
                    <mxGeometry x="165" y="555" width="15" height="15" as="geometry"/>
                </mxCell>
                <mxCell id="116" value="&amp;lt;&amp;lt;extend&amp;gt;&amp;gt;" style="edgeStyle=none;html=1;startArrow=open;endArrow=none;startSize=12;verticalAlign=bottom;dashed=1;labelBackgroundColor=none;strokeColor=#001DBC;fontSize=15;fontColor=#3333FF;fillColor=#0050ef;entryX=0;entryY=0.5;entryDx=0;entryDy=0;" edge="1" parent="1" target="24">
                    <mxGeometry width="160" relative="1" as="geometry">
                        <mxPoint x="80" y="591" as="sourcePoint"/>
                        <mxPoint x="152" y="577" as="targetPoint"/>
                    </mxGeometry>
                </mxCell>
                <mxCell id="117" value="" style="ellipse;whiteSpace=wrap;html=1;aspect=fixed;strokeColor=#001DBC;strokeWidth=2;fontSize=15;fontColor=#ffffff;fillColor=#0050ef;" vertex="1" parent="1">
                    <mxGeometry x="-547" y="183" width="15" height="15" as="geometry"/>
                </mxCell>
                <mxCell id="118" value="" style="ellipse;whiteSpace=wrap;html=1;aspect=fixed;strokeColor=#005700;strokeWidth=2;fontSize=15;fontColor=#ffffff;fillColor=#008a00;" vertex="1" parent="1">
                    <mxGeometry x="169" y="760" width="15" height="15" as="geometry"/>
                </mxCell>
                <mxCell id="119" value="&amp;lt;&amp;lt;extend&amp;gt;&amp;gt;" style="edgeStyle=none;html=1;startArrow=open;endArrow=none;startSize=12;verticalAlign=bottom;dashed=1;labelBackgroundColor=none;strokeColor=#005700;fontSize=15;fontColor=#006600;fillColor=#008a00;entryX=0;entryY=0.5;entryDx=0;entryDy=0;" edge="1" parent="1" target="109">
                    <mxGeometry width="160" relative="1" as="geometry">
                        <mxPoint x="89" y="795" as="sourcePoint"/>
                        <mxPoint x="184" y="795" as="targetPoint"/>
                    </mxGeometry>
                </mxCell>
                <mxCell id="120" value="" style="ellipse;whiteSpace=wrap;html=1;aspect=fixed;strokeColor=#005700;strokeWidth=2;fontSize=15;fontColor=#ffffff;fillColor=#008a00;" vertex="1" parent="1">
                    <mxGeometry x="-527" y="183" width="15" height="15" as="geometry"/>
                </mxCell>
                <mxCell id="124" value="" style="ellipse;whiteSpace=wrap;html=1;aspect=fixed;strokeColor=#B20000;strokeWidth=2;fontSize=15;fontColor=#ffffff;fillColor=#e51400;" vertex="1" parent="1">
                    <mxGeometry x="-485" y="421" width="15" height="15" as="geometry"/>
                </mxCell>
                <mxCell id="126" value="" style="ellipse;whiteSpace=wrap;html=1;aspect=fixed;strokeColor=#005700;strokeWidth=2;fontSize=15;fontColor=#ffffff;fillColor=#008a00;" vertex="1" parent="1">
                    <mxGeometry x="-465" y="422" width="15" height="15" as="geometry"/>
                </mxCell>
                <mxCell id="127" value="" style="ellipse;whiteSpace=wrap;html=1;aspect=fixed;strokeColor=#B20000;strokeWidth=2;fontSize=15;fontColor=#ffffff;fillColor=#e51400;" vertex="1" parent="1">
                    <mxGeometry x="-613" y="462" width="15" height="15" as="geometry"/>
                </mxCell>
                <mxCell id="128" value="" style="ellipse;whiteSpace=wrap;html=1;aspect=fixed;strokeColor=#001DBC;strokeWidth=2;fontSize=15;fontColor=#ffffff;fillColor=#0050ef;" vertex="1" parent="1">
                    <mxGeometry x="-595" y="461" width="15" height="15" as="geometry"/>
                </mxCell>
                <mxCell id="129" value="" style="ellipse;whiteSpace=wrap;html=1;aspect=fixed;strokeColor=#005700;strokeWidth=2;fontSize=15;fontColor=#ffffff;fillColor=#008a00;" vertex="1" parent="1">
                    <mxGeometry x="-578" y="461" width="15" height="15" as="geometry"/>
                </mxCell>
                <mxCell id="130" value="" style="ellipse;whiteSpace=wrap;html=1;aspect=fixed;strokeColor=#B20000;strokeWidth=2;fontSize=15;fontColor=#ffffff;fillColor=#e51400;" vertex="1" parent="1">
                    <mxGeometry x="-506" y="503" width="15" height="15" as="geometry"/>
                </mxCell>
                <mxCell id="131" value="" style="ellipse;whiteSpace=wrap;html=1;aspect=fixed;strokeColor=#001DBC;strokeWidth=2;fontSize=15;fontColor=#ffffff;fillColor=#0050ef;" vertex="1" parent="1">
                    <mxGeometry x="-487" y="503" width="15" height="15" as="geometry"/>
                </mxCell>
                <mxCell id="132" value="" style="ellipse;whiteSpace=wrap;html=1;aspect=fixed;strokeColor=#005700;strokeWidth=2;fontSize=15;fontColor=#ffffff;fillColor=#008a00;" vertex="1" parent="1">
                    <mxGeometry x="-468" y="502" width="15" height="15" as="geometry"/>
                </mxCell>
                <mxCell id="133" value="" style="ellipse;whiteSpace=wrap;html=1;aspect=fixed;strokeColor=#005700;strokeWidth=2;fontSize=15;fontColor=#ffffff;fillColor=#008a00;" vertex="1" parent="1">
                    <mxGeometry x="-371" y="517" width="15" height="15" as="geometry"/>
                </mxCell>
                <mxCell id="134" value="" style="ellipse;whiteSpace=wrap;html=1;aspect=fixed;strokeColor=#B20000;strokeWidth=2;fontSize=15;fontColor=#ffffff;fillColor=#e51400;" vertex="1" parent="1">
                    <mxGeometry x="-389" y="517" width="15" height="15" as="geometry"/>
                </mxCell>
                <mxCell id="135" value="" style="ellipse;whiteSpace=wrap;html=1;aspect=fixed;strokeColor=#B20000;strokeWidth=2;fontSize=15;fontColor=#ffffff;fillColor=#e51400;" vertex="1" parent="1">
                    <mxGeometry x="-507" y="573" width="15" height="15" as="geometry"/>
                </mxCell>
                <mxCell id="136" value="" style="ellipse;whiteSpace=wrap;html=1;aspect=fixed;strokeColor=#001DBC;strokeWidth=2;fontSize=15;fontColor=#ffffff;fillColor=#0050ef;" vertex="1" parent="1">
                    <mxGeometry x="-490" y="575" width="15" height="15" as="geometry"/>
                </mxCell>
                <mxCell id="137" value="" style="ellipse;whiteSpace=wrap;html=1;aspect=fixed;strokeColor=#005700;strokeWidth=2;fontSize=15;fontColor=#ffffff;fillColor=#008a00;" vertex="1" parent="1">
                    <mxGeometry x="-472" y="576" width="15" height="15" as="geometry"/>
                </mxCell>
                <mxCell id="138" value="" style="ellipse;whiteSpace=wrap;html=1;aspect=fixed;strokeColor=#B20000;strokeWidth=2;fontSize=15;fontColor=#ffffff;fillColor=#e51400;" vertex="1" parent="1">
                    <mxGeometry x="-379" y="605" width="15" height="15" as="geometry"/>
                </mxCell>
                <mxCell id="139" value="" style="ellipse;whiteSpace=wrap;html=1;aspect=fixed;strokeColor=#005700;strokeWidth=2;fontSize=15;fontColor=#ffffff;fillColor=#008a00;" vertex="1" parent="1">
                    <mxGeometry x="-361" y="608" width="15" height="15" as="geometry"/>
                </mxCell>
                <mxCell id="140" value="" style="ellipse;whiteSpace=wrap;html=1;aspect=fixed;strokeColor=#005700;strokeWidth=2;fontSize=15;fontColor=#ffffff;fillColor=#008a00;" vertex="1" parent="1">
                    <mxGeometry x="-486" y="701" width="15" height="15" as="geometry"/>
                </mxCell>
                <mxCell id="141" value="" style="ellipse;whiteSpace=wrap;html=1;aspect=fixed;strokeColor=#B20000;strokeWidth=2;fontSize=15;fontColor=#ffffff;fillColor=#e51400;" vertex="1" parent="1">
                    <mxGeometry x="-504" y="699" width="15" height="15" as="geometry"/>
                </mxCell>
                <mxCell id="142" value="" style="ellipse;whiteSpace=wrap;html=1;aspect=fixed;strokeColor=#B20000;strokeWidth=2;fontSize=15;fontColor=#ffffff;fillColor=#e51400;" vertex="1" parent="1">
                    <mxGeometry x="-518" y="643" width="15" height="15" as="geometry"/>
                </mxCell>
                <mxCell id="143" value="" style="ellipse;whiteSpace=wrap;html=1;aspect=fixed;strokeColor=#001DBC;strokeWidth=2;fontSize=15;fontColor=#ffffff;fillColor=#0050ef;" vertex="1" parent="1">
                    <mxGeometry x="-501" y="648" width="15" height="15" as="geometry"/>
                </mxCell>
                <mxCell id="145" value="" style="ellipse;whiteSpace=wrap;html=1;aspect=fixed;strokeColor=#005700;strokeWidth=2;fontSize=15;fontColor=#ffffff;fillColor=#008a00;" vertex="1" parent="1">
                    <mxGeometry x="-481" y="647" width="15" height="15" as="geometry"/>
                </mxCell>
                <mxCell id="146" value="" style="ellipse;whiteSpace=wrap;html=1;aspect=fixed;strokeColor=#B20000;strokeWidth=2;fontSize=15;fontColor=#ffffff;fillColor=#e51400;" vertex="1" parent="1">
                    <mxGeometry x="-626" y="685" width="15" height="15" as="geometry"/>
                </mxCell>
                <mxCell id="147" value="" style="ellipse;whiteSpace=wrap;html=1;aspect=fixed;strokeColor=#001DBC;strokeWidth=2;fontSize=15;fontColor=#ffffff;fillColor=#0050ef;" vertex="1" parent="1">
                    <mxGeometry x="-608" y="688" width="15" height="15" as="geometry"/>
                </mxCell>
                <mxCell id="148" value="" style="ellipse;whiteSpace=wrap;html=1;aspect=fixed;strokeColor=#005700;strokeWidth=2;fontSize=15;fontColor=#ffffff;fillColor=#008a00;" vertex="1" parent="1">
                    <mxGeometry x="-588" y="687" width="15" height="15" as="geometry"/>
                </mxCell>
                <mxCell id="149" value="" style="ellipse;whiteSpace=wrap;html=1;aspect=fixed;strokeColor=#B20000;strokeWidth=2;fontSize=15;fontColor=#ffffff;fillColor=#e51400;" vertex="1" parent="1">
                    <mxGeometry x="-616" y="758" width="15" height="15" as="geometry"/>
                </mxCell>
                <mxCell id="150" value="" style="ellipse;whiteSpace=wrap;html=1;aspect=fixed;strokeColor=#001DBC;strokeWidth=2;fontSize=15;fontColor=#ffffff;fillColor=#0050ef;" vertex="1" parent="1">
                    <mxGeometry x="-598" y="759" width="15" height="15" as="geometry"/>
                </mxCell>
                <mxCell id="151" value="" style="ellipse;whiteSpace=wrap;html=1;aspect=fixed;strokeColor=#005700;strokeWidth=2;fontSize=15;fontColor=#ffffff;fillColor=#008a00;" vertex="1" parent="1">
                    <mxGeometry x="-579" y="760" width="15" height="15" as="geometry"/>
                </mxCell>
                <mxCell id="152" value="" style="ellipse;whiteSpace=wrap;html=1;aspect=fixed;strokeColor=#005700;strokeWidth=2;fontSize=15;fontColor=#ffffff;fillColor=#008a00;" vertex="1" parent="1">
                    <mxGeometry x="-452" y="780" width="15" height="15" as="geometry"/>
                </mxCell>
                <mxCell id="153" value="" style="ellipse;whiteSpace=wrap;html=1;aspect=fixed;strokeColor=#001DBC;strokeWidth=2;fontSize=15;fontColor=#ffffff;fillColor=#0050ef;" vertex="1" parent="1">
                    <mxGeometry x="-470" y="780" width="15" height="15" as="geometry"/>
                </mxCell>
                <mxCell id="154" value="" style="ellipse;whiteSpace=wrap;html=1;aspect=fixed;strokeColor=#B20000;strokeWidth=2;fontSize=15;fontColor=#ffffff;fillColor=#e51400;" vertex="1" parent="1">
                    <mxGeometry x="-488" y="778" width="15" height="15" as="geometry"/>
                </mxCell>
                <mxCell id="155" value="" style="ellipse;whiteSpace=wrap;html=1;aspect=fixed;strokeColor=#B20000;strokeWidth=2;fontSize=15;fontColor=#ffffff;fillColor=#e51400;" vertex="1" parent="1">
                    <mxGeometry x="-564" y="878" width="15" height="15" as="geometry"/>
                </mxCell>
                <mxCell id="156" value="" style="ellipse;whiteSpace=wrap;html=1;aspect=fixed;strokeColor=#001DBC;strokeWidth=2;fontSize=15;fontColor=#ffffff;fillColor=#0050ef;" vertex="1" parent="1">
                    <mxGeometry x="-546" y="879" width="15" height="15" as="geometry"/>
                </mxCell>
                <mxCell id="157" value="" style="ellipse;whiteSpace=wrap;html=1;aspect=fixed;strokeColor=#005700;strokeWidth=2;fontSize=15;fontColor=#ffffff;fillColor=#008a00;" vertex="1" parent="1">
                    <mxGeometry x="-527" y="880" width="15" height="15" as="geometry"/>
                </mxCell>
                <mxCell id="158" value="" style="ellipse;whiteSpace=wrap;html=1;aspect=fixed;strokeColor=#005700;strokeWidth=2;fontSize=15;fontColor=#ffffff;fillColor=#008a00;" vertex="1" parent="1">
                    <mxGeometry x="-408" y="839" width="15" height="15" as="geometry"/>
                </mxCell>
                <mxCell id="159" value="" style="ellipse;whiteSpace=wrap;html=1;aspect=fixed;strokeColor=#001DBC;strokeWidth=2;fontSize=15;fontColor=#ffffff;fillColor=#0050ef;" vertex="1" parent="1">
                    <mxGeometry x="-427" y="840" width="15" height="15" as="geometry"/>
                </mxCell>
                <mxCell id="160" value="" style="ellipse;whiteSpace=wrap;html=1;aspect=fixed;strokeColor=#B20000;strokeWidth=2;fontSize=15;fontColor=#ffffff;fillColor=#e51400;" vertex="1" parent="1">
                    <mxGeometry x="-444" y="839" width="15" height="15" as="geometry"/>
                </mxCell>
                <mxCell id="161" value="" style="ellipse;whiteSpace=wrap;html=1;aspect=fixed;strokeColor=#005700;strokeWidth=2;fontSize=15;fontColor=#ffffff;fillColor=#008a00;" vertex="1" parent="1">
                    <mxGeometry x="-472" y="912" width="15" height="15" as="geometry"/>
                </mxCell>
                <mxCell id="162" value="" style="ellipse;whiteSpace=wrap;html=1;aspect=fixed;strokeColor=#001DBC;strokeWidth=2;fontSize=15;fontColor=#ffffff;fillColor=#0050ef;" vertex="1" parent="1">
                    <mxGeometry x="-489" y="908" width="15" height="15" as="geometry"/>
                </mxCell>
                <mxCell id="163" value="" style="ellipse;whiteSpace=wrap;html=1;aspect=fixed;strokeColor=#B20000;strokeWidth=2;fontSize=15;fontColor=#ffffff;fillColor=#e51400;" vertex="1" parent="1">
                    <mxGeometry x="-483" y="889" width="15" height="15" as="geometry"/>
                </mxCell>
                <mxCell id="164" value="" style="ellipse;whiteSpace=wrap;html=1;aspect=fixed;strokeColor=#B20000;strokeWidth=2;fontSize=15;fontColor=#ffffff;fillColor=#e51400;" vertex="1" parent="1">
                    <mxGeometry x="-608" y="969" width="15" height="15" as="geometry"/>
                </mxCell>
                <mxCell id="165" value="" style="ellipse;whiteSpace=wrap;html=1;aspect=fixed;strokeColor=#001DBC;strokeWidth=2;fontSize=15;fontColor=#ffffff;fillColor=#0050ef;" vertex="1" parent="1">
                    <mxGeometry x="-589" y="971" width="15" height="15" as="geometry"/>
                </mxCell>
                <mxCell id="166" value="" style="ellipse;whiteSpace=wrap;html=1;aspect=fixed;strokeColor=#005700;strokeWidth=2;fontSize=15;fontColor=#ffffff;fillColor=#008a00;" vertex="1" parent="1">
                    <mxGeometry x="-570" y="970" width="15" height="15" as="geometry"/>
                </mxCell>
                <mxCell id="167" value="" style="ellipse;whiteSpace=wrap;html=1;aspect=fixed;strokeColor=#005700;strokeWidth=2;fontSize=15;fontColor=#ffffff;fillColor=#008a00;" vertex="1" parent="1">
                    <mxGeometry x="-414" y="987" width="15" height="15" as="geometry"/>
                </mxCell>
                <mxCell id="168" value="" style="ellipse;whiteSpace=wrap;html=1;aspect=fixed;strokeColor=#001DBC;strokeWidth=2;fontSize=15;fontColor=#ffffff;fillColor=#0050ef;" vertex="1" parent="1">
                    <mxGeometry x="-434" y="988" width="15" height="15" as="geometry"/>
                </mxCell>
                <mxCell id="169" value="" style="ellipse;whiteSpace=wrap;html=1;aspect=fixed;strokeColor=#B20000;strokeWidth=2;fontSize=15;fontColor=#ffffff;fillColor=#e51400;" vertex="1" parent="1">
                    <mxGeometry x="-453" y="988" width="15" height="15" as="geometry"/>
                </mxCell>
                <mxCell id="170" value="" style="ellipse;whiteSpace=wrap;html=1;aspect=fixed;strokeColor=#B20000;strokeWidth=2;fontSize=15;fontColor=#ffffff;fillColor=#e51400;" vertex="1" parent="1">
                    <mxGeometry x="-607" y="1042" width="15" height="15" as="geometry"/>
                </mxCell>
                <mxCell id="171" value="" style="ellipse;whiteSpace=wrap;html=1;aspect=fixed;strokeColor=#001DBC;strokeWidth=2;fontSize=15;fontColor=#ffffff;fillColor=#0050ef;" vertex="1" parent="1">
                    <mxGeometry x="-590" y="1047" width="15" height="15" as="geometry"/>
                </mxCell>
                <mxCell id="172" value="" style="ellipse;whiteSpace=wrap;html=1;aspect=fixed;strokeColor=#005700;strokeWidth=2;fontSize=15;fontColor=#ffffff;fillColor=#008a00;" vertex="1" parent="1">
                    <mxGeometry x="-572" y="1052" width="15" height="15" as="geometry"/>
                </mxCell>
                <mxCell id="173" value="" style="ellipse;whiteSpace=wrap;html=1;aspect=fixed;strokeColor=#B20000;strokeWidth=2;fontSize=15;fontColor=#ffffff;fillColor=#e51400;" vertex="1" parent="1">
                    <mxGeometry x="-607" y="1120" width="15" height="15" as="geometry"/>
                </mxCell>
                <mxCell id="174" value="" style="ellipse;whiteSpace=wrap;html=1;aspect=fixed;strokeColor=#001DBC;strokeWidth=2;fontSize=15;fontColor=#ffffff;fillColor=#0050ef;" vertex="1" parent="1">
                    <mxGeometry x="-592" y="1125" width="15" height="15" as="geometry"/>
                </mxCell>
                <mxCell id="175" value="" style="ellipse;whiteSpace=wrap;html=1;aspect=fixed;strokeColor=#005700;strokeWidth=2;fontSize=15;fontColor=#ffffff;fillColor=#008a00;" vertex="1" parent="1">
                    <mxGeometry x="-574" y="1129" width="15" height="15" as="geometry"/>
                </mxCell>
                <mxCell id="176" value="" style="ellipse;whiteSpace=wrap;html=1;aspect=fixed;strokeColor=#005700;strokeWidth=2;fontSize=15;fontColor=#ffffff;fillColor=#008a00;" vertex="1" parent="1">
                    <mxGeometry x="-576" y="1207" width="15" height="15" as="geometry"/>
                </mxCell>
                <mxCell id="177" value="" style="ellipse;whiteSpace=wrap;html=1;aspect=fixed;strokeColor=#001DBC;strokeWidth=2;fontSize=15;fontColor=#ffffff;fillColor=#0050ef;" vertex="1" parent="1">
                    <mxGeometry x="-592" y="1202" width="15" height="15" as="geometry"/>
                </mxCell>
                <mxCell id="178" value="" style="ellipse;whiteSpace=wrap;html=1;aspect=fixed;strokeColor=#B20000;strokeWidth=2;fontSize=15;fontColor=#ffffff;fillColor=#e51400;" vertex="1" parent="1">
                    <mxGeometry x="-610" y="1198" width="15" height="15" as="geometry"/>
                </mxCell>
                <mxCell id="179" value="Follow links" style="shape=ellipse;html=1;strokeWidth=3;fontStyle=1;whiteSpace=wrap;align=center;perimeter=ellipsePerimeter;strokeColor=#000000;fontSize=15;fontColor=#000000;fillColor=none;" vertex="1" parent="1">
                    <mxGeometry x="-402" y="233" width="113" height="60" as="geometry"/>
                </mxCell>
                <mxCell id="180" value="&amp;lt;&amp;lt;extend&amp;gt;&amp;gt;" style="edgeStyle=none;html=1;startArrow=open;endArrow=none;startSize=12;verticalAlign=bottom;dashed=1;labelBackgroundColor=none;strokeColor=#001DBC;fontSize=15;fontColor=#3333FF;fillColor=#0050ef;entryX=0;entryY=0.5;entryDx=0;entryDy=0;exitX=1;exitY=0;exitDx=0;exitDy=0;" edge="1" parent="1" source="57" target="179">
                    <mxGeometry width="160" relative="1" as="geometry">
                        <mxPoint x="-480" y="289" as="sourcePoint"/>
                        <mxPoint x="-385" y="289" as="targetPoint"/>
                    </mxGeometry>
                </mxCell>
                <mxCell id="181" value="Read helps notes" style="shape=ellipse;html=1;strokeWidth=3;fontStyle=1;whiteSpace=wrap;align=center;perimeter=ellipsePerimeter;strokeColor=#000000;fontSize=15;fontColor=#000000;fillColor=none;" vertex="1" parent="1">
                    <mxGeometry x="-402" y="305" width="139" height="60" as="geometry"/>
                </mxCell>
                <mxCell id="182" value="&amp;lt;&amp;lt;include&amp;gt;&amp;gt;" style="edgeStyle=none;html=1;endArrow=open;verticalAlign=bottom;dashed=1;labelBackgroundColor=none;strokeColor=#000000;fontSize=15;fontColor=#FF0000;endSize=9;entryX=0;entryY=0.5;entryDx=0;entryDy=0;exitX=1;exitY=1;exitDx=0;exitDy=0;" edge="1" parent="1" source="57" target="181">
                    <mxGeometry width="160" relative="1" as="geometry">
                        <mxPoint x="-506" y="362" as="sourcePoint"/>
                        <mxPoint x="-410" y="366.0000000000001" as="targetPoint"/>
                    </mxGeometry>
                </mxCell>
                <mxCell id="183" value="&lt;div style=&quot;text-align: center; font-size: 26px;&quot;&gt;&lt;span style=&quot;font-size: 26px;&quot;&gt;&lt;b style=&quot;font-size: 26px;&quot;&gt;UML UCD&lt;/b&gt;&lt;/span&gt;&lt;/div&gt;" style="text;whiteSpace=wrap;html=1;fontSize=26;fontColor=#FFFFFF;labelBackgroundColor=#3333FF;" vertex="1" parent="1">
                    <mxGeometry x="-189" y="18" width="133" height="42" as="geometry"/>
                </mxCell>
            </root>
        </mxGraphModel>
    </diagram>
</mxfile>